<svg width="660" height="520" viewBox="0 0 660 520" fill="none" xmlns="http://www.w3.org/2000/svg">
  <path d="M75 323C48 200 114 84 236 59C327 41 394 89 432 130C470 171 529 196 581 265C637 338 635 439 545 469C438 505 411 425 297 425C185 425 95 416 75 323Z" fill="#FFA568"/>
  <circle cx="315" cy="250" r="134" fill="#F4D9BE"/>
  <circle cx="264" cy="230" r="14" fill="#1B1B1B"/>
  <circle cx="366" cy="230" r="14" fill="#1B1B1B"/>
  <path d="M260 295C273 316 295 329 315 329C335 329 357 316 370 295" stroke="#1B1B1B" stroke-width="12" stroke-linecap="round"/>
  <path d="M226 194C238 148 268 123 315 123C362 123 392 148 404 194" stroke="#2F1F14" stroke-width="24" stroke-linecap="round"/>
  <text x="313" y="468" text-anchor="middle" font-family="Ppneuemontreal, Arial, sans-serif" font-size="40" fill="#161717" font-weight="600">PLACEHOLDER</text>
</svg>
